<?xml version="1.0" standalone="no"?>
<!DOCTYPE svg PUBLIC "-//W3C//DTD SVG 20010904//EN"
 "http://www.w3.org/TR/2001/REC-SVG-20010904/DTD/svg10.dtd">
<svg version="1.0" xmlns="http://www.w3.org/2000/svg"
 width="1024.000000pt" height="1024.000000pt" viewBox="0 0 1024.000000 1024.000000"
 preserveAspectRatio="xMidYMid meet">

<g transform="translate(0.000000,1024.000000) scale(0.100000,-0.100000)"
fill="#000000" stroke="none">
<path d="M7235 8364 c-11 -3 -479 -95 -1040 -205 -561 -110 -1166 -229 -1345
-264 -179 -35 -419 -83 -534 -105 -116 -23 -233 -50 -262 -61 -67 -25 -132
-83 -164 -145 l-25 -49 -5 -1812 c-4 -1431 -8 -1815 -18 -1825 -10 -10 -29 -8
-96 10 -298 78 -608 33 -891 -129 -267 -153 -455 -378 -530 -634 -34 -113 -39
-274 -12 -375 135 -510 803 -727 1369 -445 326 164 554 431 628 740 19 78 20
133 20 1790 0 1358 3 1715 13 1735 7 14 24 30 37 37 14 6 180 41 370 77 190
36 774 149 1299 250 524 101 962 181 973 178 11 -2 24 -16 29 -29 5 -14 9
-538 9 -1283 0 -1186 -1 -1259 -18 -1280 l-17 -21 -90 26 c-396 116 -856 -10
-1171 -320 -175 -173 -273 -374 -290 -593 -26 -341 219 -648 601 -752 112 -31
325 -38 455 -16 330 58 649 261 826 528 65 97 123 234 145 345 19 89 19 167
17 2280 l-3 2188 -22 40 c-26 50 -58 80 -104 99 -40 17 -123 27 -154 20z"/>
</g>
</svg>
